:FULLY-SPECIFIED
:FORCE-ALL-JOINTS-BE-3DOF
:DEGREES
3160
root 0.956625 16.9241 -33.363 1086.05 5.17884 -3.83956
lfemur -18.5763 -2.38832 -8.24092
ltibia 35.2141 -0 0
lfoot -16.4449 7.43358 0.00172179
ltoes -39.8101 0 0
rfemur -19.5389 -0.337423 18.6047
rtibia 39.1898 -0 0
rfoot -12.17 -20.9705 0.00101288
rtoes -16.4721 0 0
lowerback 5.75866 1.53279 -0.489476
upperback -4.0423 2.14598 1.88213
thorax -7.56424 1.13733 1.98807
lowerneck -5.38721 -5.12694 -7.89224
upperneck 9.28379 -6.77097 5.96615
head 4.12632 -3.32943 2.73536
lclavicle 9.92448e-15 -1.54058e-14 0
lhumerus -33.2317 -18.3261 94.8084
lradius 51.0838 0 0
lwrist -8.95637 0 0
lhand -34.4295 389.535 0
lfingers 7.12502 0 0
lthumb -7.59413 -660.621 0
rclavicle 9.92448e-15 -1.54058e-14 0
rhumerus -35.4784 13.7955 -81.3604
rradius 50.3626 0 0
rwrist 1.66918 0 0
rhand -28.9322 -393.752 0
rfingers 7.12502 0 0
rthumb -2.28626 296.28 0
3161
root 0.964197 16.9266 -33.3574 1086.06 5.10726 -3.87113
lfemur -18.5014 -2.38038 -8.24617
ltibia 35.179 -0 0
lfoot -16.4318 7.50786 0.00175555
ltoes -39.869 0 0
rfemur -19.4714 -0.299995 18.6158
rtibia 39.0988 -0 0
rfoot -12.1301 -20.9316 0.000702262
rtoes -16.4672 0 0
lowerback 5.70869 1.53203 -0.496752
upperback -4.04946 2.14444 1.88654
thorax -7.54327 1.13711 1.99809
lowerneck -5.40616 -5.11279 -7.91704
upperneck 9.33702 -6.75127 5.97568
head 4.14543 -3.31987 2.74266
lclavicle 9.14837e-15 2.45002e-14 0
lhumerus -33.1903 -18.0488 94.7164
lradius 50.593 0 0
lwrist -9.138 0 0
lhand -34.5369 389.255 0
lfingers 7.12502 0 0
lthumb -7.69777 -660.906 0
rclavicle 9.14837e-15 2.45002e-14 0
rhumerus -35.4319 13.5407 -81.3499
rradius 49.796 0 0
rwrist 1.62733 0 0
rhand -28.8159 -393.757 0
rfingers 7.12502 0 0
rthumb -2.17395 296.274 0
3162
root 0.970484 16.9294 -33.3526 1086.05 5.01551 -3.90957
lfemur -18.4266 -2.37243 -8.25141
ltibia 35.1438 -0 0
lfoot -16.4188 7.58214 0.00177243
ltoes -39.9279 0 0
rfemur -19.4039 -0.262581 18.6269
rtibia 39.0077 -0 0
rfoot -12.0903 -20.8928 0.000364634
rtoes -16.4622 0 0
lowerback 5.67843 1.52518 -0.505555
upperback -4.04297 2.13512 1.90092
thorax -7.51929 1.13332 2.02007
lowerneck -5.48157 -5.11066 -7.91935
upperneck 9.43194 -6.74278 5.94227
head 4.18525 -3.31622 2.73072
lclavicle 1.94902e-15 1.09829e-14 0
lhumerus -33.1249 -17.7432 94.6127
lradius 50.1087 0 0
lwrist -9.35566 0 0
lhand -34.7053 389.711 0
lfingers 7.12502 0 0
lthumb -7.86039 -660.455 0
rclavicle 1.94902e-15 1.09829e-14 0
rhumerus -35.3629 13.402 -81.3568
rradius 49.2397 0 0
rwrist 1.50734 0 0
rhand -28.8204 -393.946 0
rfingers 7.12502 0 0
rthumb -2.17828 296.085 0
3163
root 0.976838 16.9318 -33.3486 1086.05 4.95361 -3.97401
lfemur -18.3517 -2.36448 -8.25664
ltibia 35.1086 -0 0
lfoot -16.4058 7.65642 0.00177243
ltoes -39.9868 0 0
rfemur -19.3364 -0.225179 18.6381
rtibia 38.9167 -0 0
rfoot -12.0504 -20.854 0
rtoes -16.4572 0 0
lowerback 5.63591 1.54021 -0.480739
upperback -4.04176 2.15753 1.90516
thorax -7.49342 1.1431 2.00884
lowerneck -5.4761 -5.10736 -7.88618
upperneck 9.48197 -6.74014 5.90858
head 4.19711 -3.31557 2.715
lclavicle -7.69786e-15 -1.635e-14 0
lhumerus -33.0364 -17.5629 94.5338
lradius 49.5953 0 0
lwrist -9.54395 0 0
lhand -34.1115 390.864 0
lfingers 7.12502 0 0
lthumb -7.28719 -659.282 0
rclavicle -7.69786e-15 -1.635e-14 0
rhumerus -35.3723 13.1052 -81.3584
rradius 48.7323 0 0
rwrist 1.41827 0 0
rhand -28.848 -393.702 0
rfingers 7.12502 0 0
rthumb -2.20495 296.329 0
3164
root 0.982488 16.934 -33.3447 1086.03 4.86449 -4.03701
lfemur -18.2768 -2.35651 -8.26186
ltibia 35.0735 -0 0
lfoot -16.3928 7.7307 0.00175555
ltoes -40.0457 0 0
rfemur -19.2689 -0.187792 18.6494
rtibia 38.8256 -0 0
rfoot -12.0358 -20.8219 0.000102377
rtoes -16.4522 0 0
lowerback 5.61533 1.56728 -0.466929
upperback -4.04674 2.19575 1.91473
thorax -7.48831 1.1615 2.0069
lowerneck -5.45113 -5.10275 -7.87113
upperneck 9.53739 -6.73657 5.88337
head 4.2082 -3.31503 2.70529
lclavicle 1.45303e-14 -2.01269e-15 0
lhumerus -32.9918 -17.3663 94.4738
lradius 49.1171 0 0
lwrist -9.75073 0 0
lhand -33.926 390.916 0
lfingers 7.12502 0 0
lthumb -7.10809 -659.223 0
rclavicle 1.45303e-14 -2.01269e-15 0
rhumerus -35.3673 12.8291 -81.3454
rradius 48.1956 0 0
rwrist 1.35136 0 0
rhand -28.9161 -393.954 0
rfingers 7.12502 0 0
rthumb -2.27072 296.078 0
3165
root 0.98914 16.9376 -33.3399 1086.02 4.80146 -4.03984
lfemur -18.202 -2.34855 -8.26707
ltibia 35.0383 -0 0
lfoot -16.3797 7.80498 0.00172179
ltoes -40.1046 0 0
rfemur -19.2014 -0.150418 18.6607
rtibia 38.7345 -0 0
rfoot -12.0211 -20.7899 0.000196564
rtoes -16.4473 0 0
lowerback 5.58162 1.59847 -0.485035
upperback -4.04853 2.23384 1.88638
thorax -7.4717 1.18029 1.9834
lowerneck -5.47683 -5.09546 -7.79372
upperneck 9.60954 -6.72836 5.82295
head 4.2292 -3.31088 2.67371
lclavicle -3.05059e-14 -2.6339e-15 0
lhumerus -32.9072 -17.2373 94.3933
lradius 48.5949 0 0
lwrist -9.94153 0 0
lhand -33.6354 391.061 0
lfingers 7.12502 0 0
lthumb -6.82764 -659.069 0
rclavicle -3.05059e-14 -2.6339e-15 0
rhumerus -35.3819 12.464 -81.3259
rradius 47.7019 0 0
rwrist 1.32888 0 0
rhand -28.8607 -393.645 0
rfingers 7.12502 0 0
rthumb -2.21715 296.386 0
3166
root 0.99536 16.9401 -33.3352 1086.02 4.71379 -4.05197
lfemur -18.1271 -2.34057 -8.27226
ltibia 35.0031 -0 0
lfoot -16.3667 7.87926 0.00167114
ltoes -40.1635 0 0
rfemur -19.1339 -0.113058 18.672
rtibia 38.6435 -0 0
rfoot -12.0065 -20.7578 0.000282561
rtoes -16.4423 0 0
lowerback 5.54675 1.61555 -0.502898
upperback -4.04854 2.25432 1.87702
thorax -7.45262 1.19096 1.98196
lowerneck -5.4805 -5.06918 -7.81748
upperneck 9.64549 -6.69637 5.86581
head 4.24071 -3.29384 2.69248
lclavicle 2.7792e-15 -4.01172e-14 0
lhumerus -32.8404 -17.0474 94.3146
lradius 48.1034 0 0
lwrist -10.1375 0 0
lhand -34.7329 388.886 0
lfingers 7.12502 0 0
lthumb -7.88697 -661.281 0
rclavicle 2.7792e-15 -4.01172e-14 0
rhumerus -35.3833 12.2137 -81.3275
rradius 47.2232 0 0
rwrist 1.34796 0 0
rhand -28.8614 -393.542 0
rfingers 7.12502 0 0
rthumb -2.21789 296.489 0
3167
root 1.00086 16.941 -33.3309 1086.01 4.6237 -4.06754
lfemur -18.0522 -2.33259 -8.27745
ltibia 34.9679 -0 0
lfoot -16.3537 7.95354 0.00160361
ltoes -40.2224 0 0
rfemur -19.0663 -0.0757114 18.6834
rtibia 38.5524 -0 0
rfoot -11.9919 -20.7257 0.000360368
rtoes -16.4373 0 0
lowerback 5.47626 1.60704 -0.535015
upperback -4.04994 2.24071 1.89203
thorax -7.4146 1.18634 2.01918
lowerneck -5.39547 -5.05054 -7.86136
upperneck 9.68777 -6.67559 5.87262
head 4.23967 -3.28638 2.70475
lclavicle -4.52138e-15 4.31114e-15 0
lhumerus -32.8094 -16.7832 94.2417
lradius 47.6482 0 0
lwrist -10.3153 0 0
lhand -34.6935 389.346 0
lfingers 7.12502 0 0
lthumb -7.84892 -660.82 0
rclavicle -4.52138e-15 4.31114e-15 0
rhumerus -35.4274 12.0984 -81.3528
rradius 46.8115 0 0
rwrist 1.33078 0 0
rhand -28.8672 -393.858 0
rfingers 7.12502 0 0
rthumb -2.22344 296.174 0
